<svg width="25" height="25" viewBox="0 0 25 25" fill="currentColor" xmlns="http://www.w3.org/2000/svg">
<path d="M3.61328 0H16.6992L16.748 0.0244141L17.0898 0.109863L17.3218 0.195312L17.5293 0.292969L17.7734 0.439453L17.9443 0.57373L18.1152 0.720215L18.2617 0.866699L18.396 1.0376L18.4937 1.17188L18.6035 1.35498L18.7012 1.55029L18.7988 1.79443L18.8721 2.06299L18.9209 2.39258L18.9331 2.66113V6.11572L18.9087 6.29883L18.8477 6.46973L18.7378 6.62842L18.6523 6.71387L18.5181 6.79932L18.3716 6.86035L18.1763 6.89697H18.0786L17.8955 6.86035L17.7002 6.7627L17.5781 6.65283L17.4805 6.54297L17.395 6.37207L17.3584 6.23779L17.3462 6.11572L17.334 2.47803L17.2852 2.28271L17.2241 2.13623L17.1509 2.01416L17.041 1.87988L16.8945 1.75781L16.687 1.64795L16.5283 1.59912L16.3086 1.57471H5.5542L5.10254 1.58691L5.29785 1.69678L5.59082 1.86768L5.87158 2.02637L6.0791 2.14844L6.39648 2.33154L6.68945 2.50244L6.99463 2.67334L7.2876 2.84424L8.55713 3.57666L8.8501 3.74756L9.10645 3.89404L9.39941 4.06494L9.74121 4.26025L10.6934 4.80957L10.9619 4.96826L11.2061 5.13916L11.377 5.28564L11.5723 5.48096L11.7065 5.65186L11.8286 5.83496L11.9385 6.03027L12.0605 6.32324L12.1338 6.57959L12.1826 6.84814L12.1948 6.95801L12.207 7.32422V19.3848L12.1948 19.4092L16.394 19.397L16.5894 19.3604L16.7725 19.2871L16.9434 19.1772L17.0898 19.043L17.1875 18.9087L17.2729 18.7378L17.3218 18.5669L17.334 18.4937L17.3462 15.271L17.3828 15.0635L17.4438 14.917L17.5537 14.7705L17.6392 14.6851L17.7612 14.5996L17.9077 14.5386L18.0176 14.5142H18.2617L18.4082 14.5508L18.5547 14.624L18.6768 14.7217L18.7866 14.8438L18.8721 14.9902L18.9209 15.1489L18.9331 15.2588V18.3594L18.9209 18.5913L18.8843 18.8599L18.811 19.1406L18.7256 19.3726L18.6035 19.6289L18.4814 19.8242L18.335 20.0195L18.2251 20.1416L18.2129 20.166H18.1885L18.1641 20.2148L18.1152 20.2393V20.2637L18.0176 20.3491L17.8467 20.4834L17.6392 20.6177L17.3584 20.7642L17.1387 20.8496L16.8701 20.9229L16.5771 20.9717L16.4062 20.9839H12.207V22.2778L12.1948 22.6196L12.146 22.937L12.085 23.1689L11.9873 23.4375L11.8652 23.6816L11.731 23.8892L11.5967 24.0601L11.5723 24.0967H11.5479L11.5234 24.1455L11.3525 24.3164L11.1816 24.4507L11.0107 24.5728L10.7544 24.7192L10.5103 24.8291L10.2539 24.9146L9.91211 25H9.14307L9.11865 24.9756L8.78906 24.8901L8.53271 24.7925L8.3374 24.6948L8.12988 24.585L7.80029 24.3896L7.49512 24.2188L7.2876 24.0967L5.3833 22.998L5.09033 22.8271L4.74854 22.6318L4.45557 22.4609L4.11377 22.2656L3.8208 22.0947L2.86865 21.5454L2.51465 21.3379L2.2583 21.1426L2.09961 20.9961L1.97754 20.874L1.86768 20.7397L1.7334 20.5566L1.61133 20.3369L1.51367 20.1294L1.42822 19.873L1.36719 19.6045L1.34277 19.4336L1.33057 19.2749V2.51465L1.35498 2.24609L1.41602 1.95312L1.52588 1.62354L1.66016 1.34277L1.80664 1.11084L1.94092 0.939941L2.11182 0.756836L2.22168 0.646973L2.39258 0.512695L2.56348 0.390625L2.7832 0.268555L2.96631 0.183105L3.2959 0.0732422L3.49121 0.0244141L3.61328 0ZM3.00293 2.19727L2.9541 2.30713L2.91748 2.46582L2.90527 2.70996V19.104L2.92969 19.3848L2.99072 19.5679L3.08838 19.7388L3.22266 19.8975L3.38135 20.0195L3.67432 20.1904L3.93066 20.3369L4.24805 20.52L4.54102 20.6909L4.88281 20.8862L5.43213 21.2036L5.7251 21.3745L6.06689 21.5698L6.70166 21.936L6.99463 22.1069L7.33643 22.3022L7.62939 22.4731L8.58154 23.0225L8.87451 23.1934L9.09424 23.3154L9.24072 23.3765L9.46045 23.4253H9.66797L9.8877 23.3765L10.083 23.291L10.2417 23.1812L10.3638 23.0713L10.376 23.0347H10.4004L10.5103 22.8638L10.5835 22.6929L10.6201 22.4976V7.09229L10.5835 6.88477L10.498 6.68945L10.4126 6.55518L10.3149 6.44531L10.1562 6.32324L9.86328 6.15234L9.60693 6.00586L9.05762 5.68848L8.5083 5.37109L8.21533 5.2002L7.87354 5.00488L7.58057 4.83398L6.31104 4.10156L6.01807 3.93066L5.67627 3.73535L5.0415 3.36914L4.74854 3.19824L4.40674 3.00293L4.11377 2.83203L3.77197 2.63672L3.479 2.46582L3.13721 2.27051L3.00293 2.19727Z" fill="#151515"/>
<path d="M20.2271 7.16553H20.4468L20.6421 7.21436L20.7886 7.2998L20.9473 7.43408L23.4375 9.92432L23.5596 10.083L23.6328 10.2417L23.6694 10.4126V10.5591L23.6328 10.73L23.5718 10.8643L23.4863 10.9985L20.8496 13.6353L20.7153 13.7207L20.6177 13.7695L20.4834 13.8062L20.2881 13.8184L20.1294 13.7939L19.9829 13.7329L19.8608 13.6597L19.7021 13.501L19.6045 13.3301L19.5557 13.1592V12.9028L19.5923 12.7563L19.6777 12.5854L19.7754 12.4634H19.7998V12.439H19.8242V12.4146H19.8486V12.3901H19.873L19.8975 12.3413H19.9219L19.9463 12.2925H19.9707L19.9951 12.2437H20.0195L20.0439 12.1948H20.0684L20.0928 12.146H20.1172L20.1416 12.0972H20.166L20.1904 12.0483H20.2148L20.2393 11.9995H20.2637L20.2881 11.9507H20.3125L20.3369 11.9019H20.3613L20.3857 11.853H20.4102V11.8286H20.4346V11.8042H20.459L20.4834 11.7554H20.5078V11.731H20.5322V11.7065H20.5566V11.6821H20.5811V11.6577L20.6665 11.5845L20.752 11.4868L20.8496 11.3892L20.9351 11.3159L20.9473 11.2915L16.9922 11.2793H13.7939L13.6108 11.2549L13.4521 11.1938L13.3301 11.1084L13.208 10.9985L13.1226 10.8765L13.0493 10.7056L13.0249 10.5835V10.4004L13.0737 10.2051L13.147 10.0586L13.2812 9.8999L13.4399 9.79004L13.5864 9.729L13.6963 9.70459H20.9595L20.874 9.60693L20.7764 9.50928L20.7153 9.43604L20.6665 9.39941V9.375L20.6177 9.35059V9.32617L20.5688 9.30176V9.27734L20.5322 9.26514L20.459 9.17969L19.9829 8.70361L19.8975 8.63037L19.8364 8.55713L19.7754 8.49609L19.6777 8.38623L19.5801 8.19092L19.5557 8.08105V7.82471L19.5923 7.67822L19.6777 7.50732L19.812 7.36084L19.9219 7.27539L20.0684 7.20215L20.2271 7.16553Z" fill="#151515"/>
</svg>
