<svg width="22" height="25" viewBox="0 0 22 25" fill="none" xmlns="http://www.w3.org/2000/svg">
<path fill-rule="evenodd" clip-rule="evenodd" d="M10.6667 3.76392C8.45751 3.76392 6.66665 5.77863 6.66665 8.26392C6.66665 10.7492 8.45751 12.7639 10.6667 12.7639C12.8758 12.7639 14.6667 10.7492 14.6667 8.26392C14.6667 5.77863 12.8758 3.76392 10.6667 3.76392ZM8.44443 8.26392C8.44443 6.8832 9.43935 5.76392 10.6667 5.76392C11.894 5.76392 12.8889 6.8832 12.8889 8.26392C12.8889 9.64463 11.894 10.7639 10.6667 10.7639C9.43935 10.7639 8.44443 9.64463 8.44443 8.26392Z" fill="#151515"/>
<path fill-rule="evenodd" clip-rule="evenodd" d="M10.6667 14.2639C6.7393 14.2639 3.55554 17.8456 3.55554 22.2639V23.7639H17.7778V22.2639C17.7778 17.8456 14.594 14.2639 10.6667 14.2639ZM10.6667 16.2639C13.4625 16.2639 15.7559 18.6842 15.9817 21.7639H5.35157C5.57742 18.6842 7.8708 16.2639 10.6667 16.2639Z" fill="#151515"/>
</svg>
