<svg width="130" height="130" viewBox="0 0 130 130" fill="none" xmlns="http://www.w3.org/2000/svg">
<path d="M69.0178 12.7679H60.9821V77.0536H69.0178V12.7679Z" fill="#708090"/>
<path d="M52.9464 27.9375V19.6012C31.4039 24.9849 15.4464 44.4682 15.4464 67.6786C15.4464 95.0462 37.6323 117.232 65 117.232C92.3677 117.232 114.554 95.0462 114.554 67.6786C114.554 44.4682 98.596 24.9849 77.0536 19.6012V27.9375C94.1049 33.1024 106.518 48.9409 106.518 67.6786C106.518 90.6082 87.9297 109.196 65 109.196C42.0703 109.196 23.4821 90.6082 23.4821 67.6786C23.4821 48.9409 35.895 33.1024 52.9464 27.9375Z" fill="#708090"/>
</svg>
